<?xml version="1.0" encoding="UTF-8"?>
<svg xmlns="http://www.w3.org/2000/svg" viewBox="0 0 3333.33 3333.33" width="512" height="512">
  <defs>
    <linearGradient id="taperGradient" gradientUnits="userSpaceOnUse" x1="438.94" y1="1666.7" x2="2894.37" y2="1666.7">
      <stop offset="0" stop-color="#A49A87"/>
      <stop offset="1" stop-color="#FBF7F4"/>
    </linearGradient>
  </defs>
  <rect width="3333.33" height="3333.33" fill="#000000"/>
  <path fill="url(#taperGradient)" d="M1651.62 1181.92c0.64,104.28 -64.89,224.14 -108.24,294.05 -28.52,45.99 -51.27,77.93 -81.13,118.96 -19.83,27.26 -76.74,87.34 -87.11,110.45 24.14,27.63 100.51,74.13 135.48,92.37 -29.71,-3.2 -108.63,-36.22 -137.83,-47.95 -109.29,-43.92 -252.91,-178.23 -310.85,-272.3 9.93,-33.26 56.02,-57.16 24.16,-124.76 -41.97,-89.04 -187.37,-69.16 -188.58,41.39 -0.72,65.39 37.11,74.57 72.3,100.05 -17.35,157.83 -84.3,224.47 -97.92,279.04 33.84,22.17 73.52,60.11 126.92,92.15 -30.07,-5.39 -102.07,-33.83 -129.55,-45.43 -97.78,-41.3 -246.66,-165.13 -301.78,-247.95 11.92,-19.53 23.47,-17.26 33.91,-43.48 24.24,-60.89 -26.15,-138.8 -106.65,-112.08 -69.72,23.13 -94.96,160.09 49.84,161.45 20.11,28.65 192.56,515.03 220.62,590.42 21.82,58.6 46.28,142.79 73.96,198.18 21.87,-2.17 63.37,-31.48 84.66,-42.32 215.31,-109.67 502.83,-152.82 743.5,-151.38 151.3,0.91 321.96,15.67 459.75,50.55 235.78,59.68 346.74,139.83 369.79,145.8 13.21,-52.17 278.17,-767.7 293.19,-791.81 137.36,3.88 120.96,-130.76 54.31,-159.45 -47.59,-20.48 -93.96,8.33 -109.14,37.93 -30.71,59.9 13.15,88.41 31.81,116.21 -43.62,64.81 -115.23,126.87 -180.23,174.76 -57.56,42.41 -157.9,99.76 -243.12,115.46 1.03,-1.09 2.78,-4.07 3.33,-3.03 0.55,1.04 2.56,-2.32 3.33,-2.93 0.75,-0.58 2.42,-2.04 3.35,-2.73l49.89 -34.38c23.37,-16.3 38.3,-32.23 59.16,-46.2 -6.73,-29.22 -98.84,-171.66 -96.17,-278.77 16.69,-12.67 68.22,-29.68 69.89,-94.39 2.82,-109.56 -136.56,-142.2 -185.92,-50.25 -29.74,55.41 -2.35,92.94 22.9,122.41 -18.45,52.8 -133.56,158.35 -181.04,197.21 -58.64,48 -176.3,112 -258.89,124.56 33.54,-27.63 96.94,-52.45 125.66,-88.33 -0.69,-1.39 -2.01,-4.89 -2.44,-3.97l-40.56 -50.14c-89.37,-108.55 -238.93,-324.1 -233.2,-462.79 18.91,-15.35 94.75,-23.32 93.42,-116.82 -0.9,-62.72 -47.04,-107.49 -109.11,-107.37 -137.5,0.26 -150.78,196.33 -15.65,217.63z"/>
</svg>
