<?xml version="1.0" encoding="UTF-8"?>
<!DOCTYPE svg PUBLIC "-//W3C//DTD SVG 1.1//EN" "http://www.w3.org/Graphics/SVG/1.1/DTD/svg11.dtd">
<!-- Creator: CorelDRAW (OEM Version) -->
<svg xmlns="http://www.w3.org/2000/svg" xml:space="preserve" width="3.31233in" height="1.89509in" version="1.1" style="shape-rendering:geometricPrecision; text-rendering:geometricPrecision; image-rendering:optimizeQuality; fill-rule:evenodd; clip-rule:evenodd"
viewBox="0 0 3312.33 1895.09"
 xmlns:xlink="http://www.w3.org/1999/xlink"
 xmlns:xodm="http://www.corel.com/coreldraw/odm/2003">
 <defs>
  <style type="text/css">
   <![CDATA[
    .fil0 {fill:url(#id0)}
   ]]>
  </style>
  <linearGradient id="id0" gradientUnits="userSpaceOnUse" x1="-0.02" y1="947.6" x2="3312.32" y2="947.6">
   <stop offset="0" style="stop-opacity:1; stop-color:#A49A87"/>
   <stop offset="1" style="stop-opacity:1; stop-color:white"/>
  </linearGradient>
 </defs>
 <g id="Layer_x0020_1">
  <metadata id="CorelCorpID_0Corel-Layer"/>
  <path class="fil0" d="M1635.87 293.63c0.87,140.67 -87.54,302.37 -146.02,396.67 -38.48,62.04 -69.16,105.13 -109.44,160.48 -26.76,36.78 -103.52,117.81 -117.52,149 32.56,37.28 135.59,100 182.75,124.61 -40.07,-4.32 -146.54,-48.85 -185.93,-64.69 -147.43,-59.24 -341.18,-240.43 -419.34,-367.33 13.4,-44.86 75.57,-77.11 32.59,-168.31 -56.62,-120.12 -252.77,-93.3 -254.4,55.83 -0.97,88.22 50.07,100.59 97.54,134.97 -23.41,212.92 -113.72,302.81 -132.09,376.43 45.65,29.91 99.19,81.09 171.22,124.31 -40.57,-7.27 -137.69,-45.63 -174.76,-61.29 -131.91,-55.71 -332.74,-222.76 -407.1,-334.49 16.08,-26.34 31.67,-23.28 45.75,-58.65 32.69,-82.13 -35.28,-187.24 -143.88,-151.2 -94.05,31.21 -128.11,215.96 67.23,217.8 27.13,38.65 259.75,694.77 297.61,796.46 29.44,79.06 62.43,192.62 99.77,267.34 29.5,-2.92 85.49,-42.46 114.2,-57.09 290.45,-147.94 678.31,-206.15 1002.97,-204.21 204.1,1.22 434.32,21.13 620.19,68.19 318.06,80.51 467.76,188.63 498.84,196.69 17.83,-70.38 375.25,-1035.62 395.51,-1068.15 185.3,5.24 163.19,-176.39 73.27,-215.09 -64.19,-27.63 -126.75,11.23 -147.22,51.16 -41.43,80.81 17.74,119.26 42.91,156.76 -58.85,87.43 -155.44,171.15 -243.12,235.76 -77.65,57.22 -213,134.57 -327.97,155.75 1.39,-1.47 3.75,-5.49 4.5,-4.08 0.74,1.4 3.45,-3.13 4.49,-3.95 1.01,-0.78 3.27,-2.74 4.52,-3.69l67.3 -46.37c31.53,-21.99 51.67,-43.48 79.81,-62.32 -9.07,-39.42 -133.33,-231.57 -129.72,-376.06 22.51,-17.08 92.04,-40.04 94.28,-127.33 3.81,-147.8 -184.21,-191.82 -250.8,-67.79 -40.12,74.74 -3.17,125.38 30.89,165.13 -24.89,71.22 -180.17,213.61 -244.22,266.03 -79.11,64.74 -237.83,151.08 -349.23,168.02 45.24,-37.27 130.77,-70.76 169.52,-119.15 -0.93,-1.88 -2.71,-6.6 -3.3,-5.36l-54.71 -67.64c-120.56,-146.43 -322.31,-437.21 -314.59,-624.29 25.5,-20.7 127.81,-31.46 126.02,-157.59 -1.21,-84.62 -63.46,-145 -147.19,-144.84 -185.48,0.35 -203.41,264.84 -21.12,293.57z"/>
 </g>
</svg>
