<?xml version="1.0" encoding="UTF-8"?>
<!DOCTYPE svg PUBLIC "-//W3C//DTD SVG 1.1//EN" "http://www.w3.org/Graphics/SVG/1.1/DTD/svg11.dtd">
<!-- Creator: CorelDRAW (OEM Version) -->
<svg xmlns="http://www.w3.org/2000/svg" xml:space="preserve" width="3.33333in" height="3.33333in" version="1.1" style="shape-rendering:geometricPrecision; text-rendering:geometricPrecision; image-rendering:optimizeQuality; fill-rule:evenodd; clip-rule:evenodd"
viewBox="0 0 3333.33 3333.33"
 xmlns:xlink="http://www.w3.org/1999/xlink"
 xmlns:xodm="http://www.corel.com/coreldraw/odm/2003">
 <defs>
  <style type="text/css">
   <![CDATA[
    .fil1 {fill:#A49A87}
    .fil0 {fill:white}
    .fil2 {fill:url(#id0)}
   ]]>
  </style>
  <linearGradient id="id0" gradientUnits="userSpaceOnUse" x1="1167.59" y1="1665.47" x2="2163.83" y2="1665.47">
   <stop offset="0" style="stop-opacity:1; stop-color:#A49A87"/>
   <stop offset="1" style="stop-opacity:1; stop-color:white"/>
  </linearGradient>
 </defs>
 <g id="Layer_x0020_1">
  <metadata id="CorelCorpID_0Corel-Layer"/>
  <g id="_1709048238656">
   <path class="fil0" d="M3101.13 1293.4c-20.21,0 -57.5,-2.64 -74.02,4.06 -38.71,15.7 -45.63,76.17 -1.5,97.47 17.11,8.26 54.22,4.8 75.52,4.8l0 106.34 -106.34 0c0,-33.79 10.54,-104.98 -52.11,-106.05 -24.59,-0.42 -41.46,14.15 -49.3,30.69 -7.88,16.63 -4.93,54.56 -4.93,75.36 -51.46,0 -107.64,-2.15 -158.52,0.09 -49.55,2.19 -71.81,56.63 -38.29,90.39 18.09,18.22 32.14,15.87 62.25,15.86l240.89 -0 0 106.34 -319.01 0c0,-20.83 2.76,-56.76 -4.28,-73.83 -6.8,-16.48 -24,-31.81 -47.83,-32.22 -24.59,-0.42 -41.46,14.15 -49.31,30.68 -7.87,16.57 -4.92,54.61 -4.92,75.37 -62.47,3.13 -103.19,43.91 -106.34,106.34 -54.3,0 -126.56,-8.9 -166.15,18.35 -68.09,46.85 -57.15,144.76 6.58,180.26 26.19,14.59 45.34,14.07 79.28,14.07 62.21,-0.02 124.42,0 186.63,0l0 106.33 -319.01 0c0,-33.76 10.53,-104.98 -52.11,-106.04 -24.59,-0.42 -41.43,14.13 -49.3,30.69 -7.89,16.6 -4.93,54.59 -4.93,75.35 0,75.35 -15.02,151.24 45.15,193.55 16.93,11.91 37.05,17.91 61.19,19.12l0 106.34 -212.67 0c0,-97.64 2.44,-223.79 -0.08,-319.11 -1.63,-61.48 -45.65,-103.88 -106.17,-106.01 -34.39,-1.21 -70.81,-5.28 -90.59,15.63 -20.44,21.6 -21.22,53.21 0.04,74.63 22.09,22.25 53.83,15.85 90.47,15.85l0 638.02 -106.34 0c0,-44.91 5.61,-85 -30.81,-101.61 -38.5,-17.56 -73.58,12.47 -75.41,47.28 -2.24,42.63 -3.2,82.86 18.42,113.89 17.58,25.22 42.97,44.97 87.81,46.72 0,20.49 -2.67,57.28 4.17,73.97 17.19,41.98 78.63,43.25 97.24,1.45 7.5,-16.84 4.93,-54.48 4.93,-75.36 70.23,0 142.83,1.81 212.76,-0.05 61.84,-1.64 103.07,-45.28 106.25,-106.29l106.34 0c0,20.29 -2.33,57.38 4.25,73.87 6.38,15.99 24.88,32.19 47.84,32.42 23.74,0.24 42.07,-14.69 49.31,-30.94 7.51,-16.86 4.93,-54.46 4.93,-75.35l106.34 0c2.74,62.18 44.53,103.24 106.33,106.33l0 106.34c-46.14,0 -83.96,-5.83 -101.41,30.97 -17.86,37.67 12.49,74.07 47.06,75.32 42.87,1.55 82.93,3.3 114.21,-18.23 24.35,-16.76 44.65,-45.1 46.42,-88.06 62.41,-3.09 103.2,-44.04 106.41,-106.34l212.67 0c0,25.92 -4.67,63.26 8.86,82.27 28.84,40.54 97.58,33.11 97.51,-41.02 -0.03,-31.11 -0.04,-62.22 -0.04,-93.33 0,-69.7 0.51,-108.98 -45.28,-141.31 -40.42,-28.55 -111.82,-19.28 -167.39,-19.28l0 -319.01c20.51,0 57.46,2.96 73.96,-4.15 42.45,-18.28 42.06,-79.04 1.57,-97.47 -16.49,-7.51 -55.15,-4.72 -75.61,-4.72 -2.65,-60.35 -44.92,-105.73 -106.25,-105.8 0,-35.92 5.98,-69.32 -15.85,-91.01 -20.69,-20.55 -54.22,-21.7 -74.65,-0.02 -21.93,23.27 -15.83,53.09 -15.83,90.49 0,35.44 0,70.89 0,106.34l-106.34 0c0,-70.32 1.7,-142.72 -0.07,-212.78 -1.51,-59.93 -46.01,-105.63 -106.26,-105.7l0 -106.87 106.33 0c0,20.46 -2.66,57.24 4.18,73.9 17.26,42.03 78.56,43.24 97.23,1.46 7.51,-16.8 4.93,-54.54 4.93,-75.35l106.34 0c0,20.37 -2.4,57.27 4.26,73.86 16.76,41.81 78.37,43.51 97.15,1.49 7.5,-16.8 4.93,-54.57 4.93,-75.35 77.17,0 167.69,17.52 202.95,-61.72 14.96,-33.63 9.72,-83.23 9.72,-122.75 0,-44.85 0,-89.7 0,-134.55 0,-86.6 3.12,-178.98 -0.05,-264.86 -2.51,-68.15 -91.07,-70.82 -104.67,-13.61 -3.45,14.52 -1.62,49.15 -1.62,65.8zm-1063.37 1382.38l212.67 0 0 -106.33 -212.67 0 0 106.33zm319.01 0l319.01 0 0 -319.01 -319.01 0 0 319.01zm425.35 -106.33l106.34 0 0 -106.34 -106.34 0 0 106.34zm0 212.67l106.34 0 0 -106.34 -106.34 0 0 106.34z"/>
   <path class="fil0" d="M549.04 1080.72c-77.02,0 -151.86,-14.37 -193.54,45.17 -12.41,17.73 -17.89,36.09 -19.14,61.17 -35.44,0 -70.89,0 -106.34,0 -35.15,0 -69.86,-5.91 -90.5,15.85 -20.41,21.52 -21.24,53.21 0.04,74.63 22.02,22.17 53.87,15.85 90.46,15.85 1.61,35.71 12.96,55.96 31.37,74.95 18.19,18.76 39.68,29.61 74.97,31.38l0 106.34 -106.34 0c0,-33.81 10.53,-104.98 -52.11,-106.05 -24.6,-0.42 -41.47,14.15 -49.3,30.69 -7.87,16.61 -4.93,54.56 -4.93,75.36 0,76.74 -14.69,151.24 45.17,193.54 16.88,11.93 37.06,17.93 61.17,19.13l0 212.67c-41.83,2.09 -61.6,16.54 -81.41,37.95 -21.99,23.78 -24.94,54.96 -24.93,94.43 0.01,39.79 0,79.57 0,119.36 0,60.02 -11.14,138.47 71.18,167.58 26.98,9.54 81.93,6.03 113.28,6.03 40.56,0 70.49,-1.8 95.43,-23.94 21.72,-19.29 37.05,-40.72 39.12,-82.4l106.33 0c2.16,48.39 28.05,81.29 61.84,96.54 34.86,15.73 107.75,9.8 150.83,9.8 40.54,0 116.95,5.49 149.34,-9.13 35.43,-15.98 60.79,-47.59 63.33,-97.2l106.34 0c2.78,62.17 44.51,103.24 106.33,106.33l0 106.34c-62.44,3.13 -103.24,43.96 -106.33,106.34 -144.21,6.98 -138.14,208.72 -0.08,212.61 34.04,0.96 72.45,0.92 106.51,0.01 35.59,-0.94 56.41,-13.36 74.88,-31.33 43.09,-41.91 31.37,-111.11 31.37,-181.29 62.2,-3.12 103.27,-44.09 106.34,-106.34l106.33 0c0,20.44 -2.39,57.18 4.25,73.87 16.68,41.87 78.38,43.56 97.15,1.48 7.51,-16.83 4.93,-54.5 4.93,-75.35l106.33 0c0,25.8 -4.62,63.29 8.87,82.26 21.75,30.59 65.42,34.68 89.43,-1.35 7.53,-11.3 8.09,-24.39 8.07,-39.67l-0.01 -186.65c0.07,-31.45 -7.9,-52.11 -30.83,-62.56 -29.41,-13.41 -53.65,2.27 -65.59,18.3 -15.08,20.26 -9.94,55.76 -9.94,83.32l-106.33 0c0,-44.13 0,-88.25 0,-132.38 0,-37.92 4.96,-91.16 -9.08,-123.34 -34.18,-78.33 -121.21,-65.41 -203.68,-63.24 -41.8,1.09 -70.48,21.44 -87.11,45.12 -22,31.34 -20.94,70.21 -19.07,113.35 1.56,36.02 34.84,66.85 73.89,50 40.97,-17.68 32.37,-64.37 32.37,-102.19l106.33 0 0 212.67 -212.76 0c-2.38,-60.31 -45.21,-105.73 -106.26,-105.8 0,-41.2 5.54,-116.43 -9.08,-149.92 -14.74,-33.8 -49.21,-62.7 -97.26,-62.76 0,-35.92 5.99,-69.32 -15.86,-90.99 -20.77,-20.6 -54.09,-21.69 -74.64,-0.03 -21.91,23.09 -15.83,53.19 -15.83,90.49 0,35.44 0,70.89 0,106.33 -62.46,3.15 -103.22,43.93 -106.33,106.34l-212.67 0c0,-70.32 1.69,-142.72 -0.07,-212.78 -1.51,-59.99 -46.03,-105.63 -106.35,-105.7 -2.26,-60.62 -44.89,-106.27 -106.25,-106.34l0 -213.21c27.98,0 260.8,2.09 276.93,-1.07 21.84,-4.28 41.14,-25.31 41.85,-51.05 0.71,-25.94 -18.56,-48.02 -40.28,-52.57 -19.37,-4.06 -247.86,-1.65 -278.49,-1.65l0 -212.67 106.33 0c0,36.4 -5.97,68.5 15.87,90.48 21.36,21.5 53.27,21.48 74.54,-0.06 21.79,-22.07 15.93,-54.02 15.93,-90.42 0,-35.44 0,-70.89 0,-106.34 62.21,-3.11 103.27,-44.1 106.33,-106.34 20.5,0 57.46,2.96 73.96,-4.15 42.43,-18.28 42.08,-79.01 1.56,-97.46 -16.5,-7.52 -55.04,-4.72 -75.52,-4.72 -77.29,0 -151.73,-14.37 -193.54,45.17 -12.32,17.55 -17.89,36.26 -19.13,61.17zm-319.01 957.04l0 212.67 106.34 0c2.13,-42.7 22.54,-79.3 61.72,-96.61 34.96,-15.44 107.94,-9.73 150.95,-9.73l0 -106.4c-61.79,-2.41 -103.47,-44.61 -106.33,-106.27l-106.34 0c-3.26,62.3 -43.95,103.21 -106.34,106.34z"/>
   <path class="fil1" d="M362.72 2464.51c-98.48,11.78 -173.37,67.05 -215.96,156.19 -24.73,51.75 -23.07,102.77 -23.07,163.59 0,121.55 -18.47,220.69 53.9,317.18 25.41,33.87 55.06,59.69 103.69,82.93 51.75,24.73 102.77,23.07 163.59,23.07 121.66,0 220.6,18.48 317.19,-53.9 34.15,-25.59 59.53,-54.75 82.92,-103.7 24.7,-51.69 23.07,-102.88 23.07,-163.59 0,-55.47 4.38,-132.42 -1.43,-185.36 -10.65,-97.13 -68.74,-172.97 -156.17,-214.75 -65.19,-31.15 -174.43,-23.07 -256.91,-23.07 -27.96,0 -64.19,-1.78 -90.83,1.4zm6.85 106.55c-73.96,12.65 -122.36,58.03 -136.67,129.24 -5.33,26.55 -5.91,233.84 -1.34,262.73 11.41,72.18 60.3,121.35 129.31,135.22 26.48,5.32 233.95,5.91 262.74,1.34 71.78,-11.38 121.67,-60.32 135.22,-129.3 5.34,-27.19 5.97,-233.5 1.33,-262.75 -11.38,-71.78 -60.32,-121.67 -129.3,-135.23 -26.19,-5.15 -234.41,-5.85 -261.3,-1.26z"/>
   <path class="fil1" d="M2702.14 125.1c-98.48,11.78 -173.37,67.05 -215.96,156.19 -24.72,51.74 -23.07,102.77 -23.07,163.58 0,121.55 -18.47,220.7 53.91,317.19 25.41,33.87 55.05,59.69 103.69,82.93 51.74,24.72 102.77,23.07 163.58,23.07 121.66,0 220.6,18.47 317.19,-53.9 34.15,-25.59 59.54,-54.75 82.92,-103.7 24.7,-51.69 23.07,-102.88 23.07,-163.58 0,-55.47 4.38,-132.42 -1.43,-185.37 -10.65,-97.12 -68.75,-172.97 -156.17,-214.75 -65.19,-31.15 -174.43,-23.07 -256.9,-23.07 -27.96,0 -64.19,-1.78 -90.83,1.41zm6.85 106.55c-73.97,12.65 -122.36,58.03 -136.67,129.24 -5.33,26.54 -5.9,233.84 -1.34,262.73 11.41,72.18 60.3,121.35 129.31,135.22 26.47,5.32 233.94,5.9 262.73,1.34 71.78,-11.38 121.67,-60.32 135.23,-129.3 5.34,-27.19 5.97,-233.5 1.33,-262.75 -11.38,-71.78 -60.32,-121.67 -129.3,-135.23 -26.19,-5.15 -234.41,-5.85 -261.3,-1.26z"/>
   <path class="fil1" d="M362.72 125.1c-98.48,11.78 -173.37,67.05 -215.96,156.19 -24.73,51.74 -23.07,102.77 -23.07,163.58 0,55.48 -4.38,132.42 1.43,185.37 5.76,52.54 26.85,97.65 52.48,131.82 25.41,33.87 55.06,59.69 103.69,82.93 51.75,24.72 102.77,23.07 163.59,23.07 55.47,0 132.42,4.37 185.36,-1.43 97.12,-10.65 172.97,-68.74 214.75,-156.17 24.7,-51.69 23.07,-102.88 23.07,-163.58 0,-55.47 4.38,-132.42 -1.43,-185.37 -10.65,-97.12 -68.74,-172.97 -156.17,-214.75 -65.19,-31.15 -174.43,-23.07 -256.91,-23.07 -27.96,0 -64.19,-1.78 -90.83,1.41zm6.85 106.55c-73.96,12.65 -122.36,58.03 -136.67,129.24 -5.33,26.54 -5.91,233.84 -1.34,262.73 11.41,72.18 60.3,121.35 129.31,135.22 26.48,5.32 233.95,5.9 262.74,1.34 71.78,-11.38 121.67,-60.32 135.22,-129.3 5.34,-27.19 5.97,-233.5 1.33,-262.75 -11.38,-71.78 -60.32,-121.67 -129.3,-135.23 -26.19,-5.15 -234.41,-5.85 -261.3,-1.26z"/>
   <path class="fil0" d="M2463.11 1080.72c0,20.41 -2.39,57.23 4.25,73.87 6.43,16.09 24.79,32.11 47.83,32.42 23.7,0.32 42.06,-14.68 49.32,-30.94 7.51,-16.83 4.93,-54.51 4.93,-75.35l106.33 0 0 106.34c-62.47,3.13 -103.22,43.95 -106.33,106.34 -20.21,0 -57.5,-2.64 -74.02,4.06 -38.75,15.71 -45.59,76.2 -1.5,97.47 17.12,8.26 54.22,4.8 75.52,4.8 0,36.36 -5.96,68.53 15.87,90.49 21.36,21.49 53.24,21.57 74.55,-0.06 21.8,-22.12 15.92,-53.93 15.92,-90.43 0,-35.44 0,-70.89 0,-106.33 40.53,0 116.95,5.48 149.35,-9.13 35.58,-16.05 60.72,-47.67 63.33,-97.21 61.83,-3.09 103.76,-44.24 106.27,-106.34 37.22,0 92.69,10.32 104.63,-40.69 5.59,-23.89 -4.2,-40.75 -16.31,-51.91 -16.78,-15.44 -33.3,-13.76 -60.03,-13.74l-585.94 0c-23.46,-0.01 -44.31,-1.64 -59.96,11.63 -11.67,9.89 -23.83,28.11 -19,52.33 10.56,52.87 68.57,42.37 104.99,42.37z"/>
   <path class="fil0" d="M2037.76 761.72c0,43.06 -6.17,113.54 9.06,149.45 16.81,39.69 54.26,61.07 97.28,63.22l0 106.33c-20.21,0 -57.5,-2.63 -74.02,4.06 -38.73,15.71 -45.6,76.19 -1.5,97.47 17.11,8.26 54.23,4.8 75.52,4.8 2.7,60.28 45.38,105.55 106.33,106.34 0,70.48 -1.46,142.49 0.05,212.78 1.26,59.25 46.71,106.04 106.3,106.12 133.61,0.19 147.81,-205.16 -0,-212.57 0,-41.16 5.53,-115.9 -9.08,-149.39 -15.44,-35.39 -48.26,-60.83 -97.26,-63.29 0,-70.11 1.94,-142.98 -0.07,-212.75 -1.74,-59.98 -45.75,-105.66 -106.26,-105.72l0 -106.87c26.76,0 62.46,5.24 82.34,-8.83 16.97,-12.01 31.26,-37.09 19.71,-65 -9.48,-22.91 -29.05,-32.56 -60.81,-32.54l-186.65 0.01c-79.75,-0.17 -80.21,69.33 -44.55,96.63 18.96,14.52 55.87,9.73 83.61,9.73z"/>
   <path class="fil0" d="M1080.73 761.72l106.33 0c0,20.23 -2.32,57.47 4.25,73.87 6.45,16.1 24.8,32.07 47.83,32.45 23.52,0.39 42.16,-14.78 49.33,-30.94 7.48,-16.85 4.92,-54.49 4.92,-75.37 0,-41.13 5.52,-115.91 -9.09,-149.38 -15.44,-35.39 -48.24,-60.84 -97.25,-63.3 0,-41.13 5.52,-115.93 -9.08,-149.39 -15.44,-35.4 -48.29,-60.83 -97.26,-63.29 0,-33.77 10.56,-104.97 -52.11,-106.05 -24.6,-0.42 -41.48,14.17 -49.31,30.68 -7.87,16.58 -4.92,54.63 -4.92,75.37l0 557.72c-0.01,29.41 -1.21,47.22 15.87,64.44 33.95,34.22 87.26,10.45 90.28,-36.16 3.2,-49.45 0.19,-109.99 0.19,-160.66z"/>
   <path class="fil0" d="M1931.43 230.03l0 106.34c-48.61,2.35 -81.26,27.65 -96.62,61.76 -40.96,90.99 52.95,180.85 139.62,141.78 35.57,-16.04 60.71,-47.65 63.33,-97.21 20.62,0 57.42,3.25 74.02,-4.12 43.24,-19.21 41.23,-79.45 1.5,-97.5 -16.52,-7.5 -55.05,-4.71 -75.52,-4.71l0 -106.34c65.83,0 131.66,0 197.48,0 26.05,0 73.88,4.81 93.57,-6.3 35.26,-19.91 38.17,-72.2 0.05,-93.83 -18.55,-10.53 -118.87,-6.21 -143.53,-6.21l-499.13 -0c-29.94,-0.05 -54.52,0.76 -68.86,30.98 -13.81,29.11 4.05,57.52 21.65,68.27 19.74,12.06 66.57,7.09 92.79,7.09 66.55,0 133.1,0 199.65,0z"/>
   <path class="fil0" d="M475.77 337.85c-24.19,3.38 -40.02,8.85 -59.54,19.76 -55.11,30.81 -87.76,94.97 -78.41,159.73 11.53,79.77 84.64,150.29 179.52,136.57 79.78,-11.53 150.29,-84.64 136.57,-179.52 -11.55,-79.9 -84.44,-149.64 -178.15,-136.55z"/>
   <path class="fil0" d="M2815.18 337.85c-90.43,12.63 -150.48,92.71 -137.94,179.49 11.53,79.77 84.63,150.29 179.52,136.57 79.78,-11.53 150.29,-84.64 136.57,-179.52 -11.55,-79.89 -84.44,-149.64 -178.16,-136.55z"/>
   <path class="fil0" d="M475.77 2677.26c-38.04,5.31 -80.27,25.5 -103.08,56.56 -26.35,35.88 -41.99,73.63 -34.86,122.94 11.53,79.78 84.64,150.29 179.52,136.58 79.77,-11.53 150.29,-84.63 136.57,-179.52 -11.55,-79.9 -84.44,-149.64 -178.15,-136.55z"/>
   <path class="fil0" d="M868.06 1293.4c0,20.41 -2.39,57.23 4.25,73.87 16.66,41.73 78.43,43.56 97.15,1.48 7.51,-16.88 4.93,-54.44 4.93,-75.35 115.02,0 230.04,-0.02 345.05,0 32.99,0 48.28,2.08 66.5,-18.17 14.76,-16.41 19.32,-43.3 4.94,-64.16 -14.13,-20.5 -31.04,-24.09 -62.76,-24.02l-431.86 0.01c-52.69,0 -120.04,-13.34 -132.94,40.54 -6.68,27.89 9.48,49.22 24.97,58.7 19.19,11.73 55.09,7.1 79.76,7.1z"/>
   <path class="fil0" d="M1612.41 655.38c-20.2,0 -57.52,-2.63 -74.02,4.06 -15.42,6.26 -31.94,25.57 -32.14,48.04 -0.2,24.08 14.54,41.68 30.64,49.43 17.16,8.26 54.2,4.81 75.52,4.81 0,36.26 -5.89,68.56 15.87,90.48 21.28,21.44 53.37,21.59 74.56,-0.05 21.79,-22.26 15.91,-53.84 15.91,-90.43 0,-35.44 0,-70.89 0,-106.34 20.65,0 57.4,3.24 74.02,-4.12 16.04,-7.11 31.44,-24.54 32.07,-47.99 0.62,-23.23 -14.83,-42.33 -30.57,-49.5 -16.47,-7.51 -55.09,-4.72 -75.53,-4.72 0,-51.83 1.86,-107.12 -0.05,-158.52 -1.84,-49.52 -58.17,-72.24 -90.45,-38.3 -16.56,17.41 -15.85,32.94 -15.83,62.27l0 240.89z"/>
   <path class="fil0" d="M1612.41 1080.72c-35.45,0 -70.89,0 -106.34,0 -35.18,0 -69.88,-5.91 -90.51,15.85 -20.42,21.53 -21.22,53.2 0.04,74.64 22.08,22.25 53.84,15.85 90.46,15.85 0,20.41 -2.39,57.23 4.25,73.87 6.46,16.19 24.76,31.98 47.83,32.49 23.51,0.51 42.19,-15.02 49.32,-31.01 7.52,-16.85 4.94,-54.5 4.94,-75.35 42.65,-2.13 70.22,-20.6 86.88,-45.54 22.96,-34.39 21.13,-66.81 19.4,-112.98 -1.36,-36.44 -33.99,-66.29 -73.96,-50.08 -37.64,15.27 -32.33,56.65 -32.33,102.27z"/>
   <path class="fil0" d="M1399.74 2994.79c-20.28,0 -57.44,-2.63 -74.01,4.07 -38.74,15.67 -45.61,76.19 -1.5,97.46 17.14,8.26 54.22,4.81 75.52,4.81 1.93,41.95 21.3,70.36 45.16,87.21 31.5,22.25 70.36,20.09 113.36,19.13 36.02,-0.8 65.89,-35.09 49.87,-73.83 -15.78,-38.17 -55.61,-32.51 -102.06,-32.51 0,-35.44 0,-70.89 0,-106.33 0,-35.79 5.94,-68.92 -15.86,-90.46 -20.83,-20.6 -54.02,-21.68 -74.65,-0.02 -21.89,22.99 -15.83,53.27 -15.83,90.49z"/>
   <path class="fil0" d="M974.39 1718.75c-62.47,3.13 -103.19,43.91 -106.33,106.34 -46.11,0 -83.99,-5.83 -101.41,30.97 -17.83,37.68 12.48,74.07 47.06,75.32 42.83,1.55 82.94,3.31 114.21,-18.22 24.32,-16.76 44.63,-45.11 46.41,-88.07 42.84,-2.12 70.17,-20.46 86.94,-45.55 22.96,-34.33 21.13,-66.92 19.41,-112.97 -1.36,-36.43 -33.97,-66.29 -73.96,-50.09 -37.64,15.25 -32.32,56.71 -32.32,102.27z"/>
   <path class="fil0" d="M1825.09 1187.06c-25.54,0 -63.57,-4.75 -82.36,8.78 -16.06,11.56 -31.4,35.91 -19.73,65.09 3.83,9.57 13.44,19.53 21.01,24.53 12.82,8.47 23.14,7.99 39.84,7.96l186.64 -0.01c31.83,0.07 51.79,-7.64 62.34,-30.98 13.28,-29.36 -1.96,-53.28 -17.85,-65.62 -18.97,-14.73 -57.26,-9.74 -83.55,-9.74 0,-33.8 10.53,-104.98 -52.11,-106.04 -24.61,-0.42 -41.48,14.14 -49.31,30.68 -7.87,16.62 -4.92,54.58 -4.92,75.37z"/>
   <path class="fil0" d="M1016.44 3102.91c-46.59,9.55 -54.73,67.88 -19.3,94.81 17.89,13.6 44.33,9.74 70.57,9.74 44.73,0 105.22,12.22 117.65,-40.69 6.34,-26.98 -7.3,-45.27 -21.06,-55.92 -17.43,-13.5 -46.61,-9.73 -70.55,-9.73 -21.33,0 -58.58,-2.06 -77.31,1.78z"/>
   <path class="fil0" d="M1973.47 2996.57c-51.33,10.63 -42.04,65.35 -42.04,117.58 0,24.22 -3.57,52.8 9.78,70.48 31.78,42.09 85.72,21.2 94.83,-17.85 3.85,-16.5 1.72,-59.04 1.72,-78.68 0,-25.8 3.4,-52.85 -9.75,-70.57 -10.53,-14.19 -29.19,-26.22 -54.54,-20.97z"/>
   <path class="fil0" d="M1867.16 763.5c-51.35,10.51 -42.07,65.41 -42.07,117.57 0,24.21 -3.56,52.81 9.78,70.48 31.67,41.95 85.62,21.44 94.76,-17.85 4,-17.19 1.8,-58.93 1.8,-78.67 0,-25.8 3.4,-52.87 -9.76,-70.56 -10.57,-14.21 -29.1,-26.17 -54.51,-20.96z"/>
   <path class="fil0" d="M2930.5 2996.57c-46.5,9.65 -54.83,67.81 -19.3,94.81 17.89,13.59 44.33,9.74 70.57,9.74 18.14,0 64.26,2.13 79.08,-1.35 36,-8.44 60.22,-62.17 17.51,-95.26 -17.41,-13.49 -46.6,-9.72 -70.56,-9.72 -21.19,0 -58.77,-2.07 -77.31,1.78z"/>
   <path class="fil0" d="M1548.12 2677.56c-51.33,10.63 -42.05,65.37 -42.05,117.57 0,24.09 -3.49,52.87 9.79,70.48 31.63,41.96 85.59,21.47 94.74,-17.85 4,-17.22 1.81,-58.9 1.81,-78.67 0,-25.8 3.4,-52.82 -9.75,-70.56 -10.52,-14.19 -29.2,-26.22 -54.54,-20.97z"/>
   <path class="fil0" d="M1229.14 2890.24c-69.2,14.15 -45.44,119.61 23.99,103.21 62.78,-14.83 47.56,-117.85 -23.99,-103.21z"/>
   <path class="fil0" d="M3143.2 1933.21c-69.21,14.15 -45.41,119.63 23.99,103.21 62.8,-14.86 47.54,-117.84 -23.99,-103.21z"/>
   <path class="fil0" d="M1229.14 231.82c-69.23,14.18 -45.41,119.6 23.98,103.21 62.67,-14.81 47.58,-117.86 -23.98,-103.21z"/>
   <path class="fil0" d="M3036.84 2039.54c-68.92,14.27 -45.52,119.7 24.01,103.21 62.93,-14.93 47.35,-117.98 -24.01,-103.21z"/>
   <path class="fil0" d="M165.74 976.17c-68.98,14.28 -45.46,119.65 24.02,103.22 62.76,-14.83 47.41,-118.01 -24.02,-103.22z"/>
   <path class="fil0" d="M1122.8 125.48c-68.93,14.11 -45.59,119.65 23.98,103.21 62.65,-14.8 47.6,-117.86 -23.98,-103.21z"/>
   <path class="fil0" d="M1441.81 550.83c-68.9,14.09 -45.62,119.65 23.98,103.21 62.64,-14.8 47.61,-117.85 -23.98,-103.21z"/>
   <path class="fil0" d="M1016.44 1401.52c-68.93,14.2 -45.52,119.67 24.01,103.22 62.69,-14.83 47.46,-117.95 -24.01,-103.22z"/>
   <path class="fil0" d="M1335.47 444.5c-69,14.24 -45.51,119.62 23.99,103.21 62.68,-14.8 47.48,-117.96 -23.99,-103.21z"/>
   <path class="fil0" d="M2292.5 763.5c-68.89,14.11 -45.61,119.65 23.98,103.21 62.66,-14.81 47.59,-117.86 -23.98,-103.21z"/>
   <path class="fil0" d="M2186.17 444.5c-25.98,5.36 -47.97,30.96 -40.34,63.9 15.78,68.14 119.51,43.21 103.05,-25.11 -6.09,-25.26 -30.98,-45.34 -62.7,-38.79z"/>
   <path class="fil0" d="M803.76 2039.54c-25.97,5.38 -47.93,30.99 -40.32,63.91 15.67,67.8 119.44,43.67 102.98,-25.12 -6.06,-25.33 -30.93,-45.36 -62.66,-38.79z"/>
   <path class="fil0" d="M1441.81 2571.23c-25.98,5.36 -47.96,30.96 -40.35,63.9 15.68,67.83 119.46,43.62 102.98,-25.12 -6.07,-25.3 -30.88,-45.34 -62.63,-38.78z"/>
   <path class="fil0" d="M1335.45 976.17c-25.93,5.38 -47.95,30.98 -40.32,63.91 15.74,67.89 119.43,43.56 102.97,-25.12 -6.06,-25.28 -30.94,-45.37 -62.65,-38.79z"/>
   <path class="fil0" d="M803.76 1614.19c-25.95,5.37 -47.94,31.01 -40.32,63.91 15.71,67.83 119.42,43.63 102.97,-25.11 -6.04,-25.27 -30.91,-45.37 -62.65,-38.79z"/>
   <path class="fil0" d="M1654.48 2571.23c-69.32,14.31 -45.3,119.61 23.99,103.21 23.86,-5.65 46.16,-33.07 38.64,-64.43 -6.07,-25.31 -30.87,-45.34 -62.63,-38.78z"/>
   <path class="fil0" d="M1335.47 125.48c-69.24,14.17 -45.39,119.6 23.98,103.21 23.83,-5.63 46.17,-33.07 38.65,-64.43 -6.07,-25.31 -30.83,-45.29 -62.64,-38.78z"/>
   <path class="fil0" d="M2505.18 2464.89c-69.21,14.16 -45.41,119.62 23.99,103.21 23.75,-5.61 46.18,-32.95 38.64,-64.43 -6.07,-25.36 -30.83,-45.29 -62.63,-38.79z"/>
   <path class="fil0" d="M803.76 1401.52c-68.96,14.31 -45.48,119.65 24.01,103.22 23.81,-5.63 46.15,-33.06 38.64,-64.43 -6.06,-25.3 -30.93,-45.38 -62.65,-38.79z"/>
   <path class="fil0" d="M2292.5 2890.24c-68.89,14.09 -45.63,119.65 23.99,103.21 23.8,-5.62 46.14,-33.08 38.64,-64.43 -6.06,-25.33 -30.84,-45.28 -62.63,-38.78z"/>
   <path class="fil0" d="M2292.5 550.83c-68.88,14.09 -45.63,119.65 23.98,103.21 23.8,-5.62 46.17,-33.07 38.65,-64.42 -6.08,-25.34 -30.83,-45.29 -62.63,-38.79z"/>
   <path class="fil0" d="M1335.47 2783.91c-69,14.24 -45.5,119.65 23.99,103.21 23.83,-5.63 46.15,-33.1 38.64,-64.43 -6.07,-25.32 -30.9,-45.33 -62.63,-38.78z"/>
   <path class="fil0" d="M1506.07 868.06c0,0 0,0 0,0z"/>
   <path class="fil0" d="M2356.77 3101.13c0,0 0,0 0,0z"/>
   <path class="fil2" d="M1659.61 1468.77c0.26,42.31 -26.33,90.94 -43.92,119.3 -11.57,18.66 -20.8,31.62 -32.92,48.27 -8.04,11.06 -31.13,35.44 -35.34,44.81 9.79,11.21 40.78,30.08 54.96,37.48 -12.05,-1.3 -44.07,-14.69 -55.92,-19.46 -44.34,-17.82 -102.61,-72.31 -126.12,-110.48 4.03,-13.5 22.73,-23.19 9.8,-50.62 -17.03,-36.13 -76.02,-28.06 -76.51,16.79 -0.3,26.54 15.06,30.26 29.33,40.59 -7.04,64.04 -34.2,91.07 -39.73,113.22 13.73,9 29.83,24.39 51.5,37.39 -12.2,-2.19 -41.41,-13.72 -52.56,-18.43 -39.67,-16.76 -100.08,-67 -122.44,-100.6 4.83,-7.93 9.52,-7 13.76,-17.64 9.83,-24.7 -10.61,-56.31 -43.28,-45.48 -28.29,9.39 -38.53,64.96 20.22,65.51 8.16,11.62 78.13,208.96 89.51,239.55 8.85,23.78 18.78,57.93 30.01,80.41 8.87,-0.88 25.71,-12.77 34.35,-17.17 87.36,-44.5 204.02,-62 301.66,-61.42 61.39,0.37 130.63,6.35 186.54,20.51 95.66,24.22 140.69,56.74 150.04,59.16 5.36,-21.17 112.86,-311.48 118.96,-321.26 55.73,1.57 49.08,-53.06 22.04,-64.69 -19.31,-8.31 -38.12,3.38 -44.28,15.39 -12.46,24.3 5.33,35.87 12.91,47.15 -17.7,26.3 -46.75,51.48 -73.13,70.91 -23.35,17.21 -64.06,40.48 -98.64,46.85 0.42,-0.44 1.13,-1.65 1.35,-1.23 0.22,0.42 1.04,-0.94 1.35,-1.19 0.3,-0.24 0.98,-0.83 1.36,-1.11l20.24 -13.95c9.48,-6.61 15.54,-13.08 24,-18.74 -2.73,-11.85 -40.1,-69.65 -39.02,-113.11 6.77,-5.14 27.68,-12.04 28.36,-38.3 1.15,-44.45 -55.41,-57.69 -75.43,-20.39 -12.07,22.48 -0.95,37.71 9.29,49.67 -7.48,21.42 -54.19,64.24 -73.45,80.01 -23.8,19.47 -71.53,45.44 -105.04,50.54 13.61,-11.21 39.33,-21.28 50.98,-35.84 -0.28,-0.56 -0.81,-1.98 -0.99,-1.61l-16.46 -20.35c-36.26,-44.04 -96.94,-131.5 -94.62,-187.77 7.67,-6.22 38.44,-9.46 37.9,-47.39 -0.37,-25.45 -19.09,-43.61 -44.27,-43.57 -55.79,0.11 -61.18,79.66 -6.35,88.3z"/>
  </g>
 </g>
</svg>
