<?xml version="1.0" encoding="UTF-8"?>
<!DOCTYPE svg PUBLIC "-//W3C//DTD SVG 1.1//EN" "http://www.w3.org/Graphics/SVG/1.1/DTD/svg11.dtd">
<!-- Creator: CorelDRAW (OEM Version) -->
<svg xmlns="http://www.w3.org/2000/svg" xml:space="preserve" width="5.515in" height="0.96811in" version="1.1" style="shape-rendering:geometricPrecision; text-rendering:geometricPrecision; image-rendering:optimizeQuality; fill-rule:evenodd; clip-rule:evenodd"
viewBox="0 0 5515 968.11"
 xmlns:xlink="http://www.w3.org/1999/xlink"
 xmlns:xodm="http://www.corel.com/coreldraw/odm/2003">
 <defs>
  <style type="text/css">
   <![CDATA[
    .fil0 {fill:#FEFEFE;fill-rule:nonzero}
    .fil1 {fill:url(#id0)}
   ]]>
  </style>
  <linearGradient id="id0" gradientUnits="userSpaceOnUse" x1="4384.56" y1="131.68" x2="4840.19" y2="131.68">
   <stop offset="0" style="stop-opacity:1; stop-color:#A49A87"/>
   <stop offset="1" style="stop-opacity:1; stop-color:white"/>
  </linearGradient>
 </defs>
 <g id="Layer_x0020_1">
  <metadata id="CorelCorpID_0Corel-Layer"/>
  <g id="_1709045307008">
   <path class="fil0" d="M2053.25 798.89l0 -247.26 0 -285.61 133.21 0 3.03 180.66 20.19 0c4.7,-47.1 13.62,-84.61 26.74,-112.53 13.12,-27.93 31.96,-48.28 56.51,-61.06 24.56,-12.78 55.01,-19.18 91.34,-19.18 5.39,0 11.44,0.17 18.17,0.5 6.73,0.34 14.47,1.18 23.21,2.53l-6.05 173.59c-10.76,-5.38 -22.37,-8.92 -34.82,-10.6 -12.45,-1.69 -23.38,-2.52 -32.8,-2.52 -26.24,0 -48.94,5.04 -68.12,15.13 -19.17,10.09 -34.31,25.57 -45.41,46.42 -11.1,20.86 -18.33,47.1 -21.7,78.72l0 241.2 -163.49 0zm-1467.84 14.13c-29.6,0 -55.85,-5.88 -78.72,-17.66 -22.88,-11.77 -40.7,-28.93 -53.49,-51.46 -12.78,-22.54 -19.17,-49.96 -19.17,-82.25 0,-30.28 5.88,-55.34 17.66,-75.19 11.77,-19.85 28.93,-35.66 51.46,-47.43 22.54,-11.78 49.62,-21.53 81.24,-29.26 31.62,-7.74 67.62,-14.64 107.99,-20.69 19.51,-3.36 35.82,-6.56 48.94,-9.59 13.13,-3.02 23.05,-7.9 29.78,-14.63 6.72,-6.72 10.09,-16.48 10.09,-29.26 0,-16.82 -6.05,-31.29 -18.17,-43.4 -12.11,-12.1 -31.62,-18.16 -58.53,-18.16 -18.85,0 -35.83,3.36 -50.97,10.1 -15.13,6.72 -28.09,16.48 -38.85,29.26 -10.76,12.78 -18.83,28.25 -24.22,46.43l-143.31 -42.39c8.75,-28.26 21.02,-52.82 36.84,-73.68 15.8,-20.86 34.81,-38.18 57.01,-51.97 22.21,-13.8 47.6,-23.88 76.2,-30.28 28.59,-6.39 59.04,-9.58 91.33,-9.58 53.82,0 97.72,8.57 131.7,25.73 33.98,17.16 59.2,43.73 75.69,79.73 16.49,35.99 24.73,82.25 24.73,138.76l0 81.75c0,24.22 0.5,48.61 1.51,73.17 1.01,24.56 2.35,49.11 4.04,73.67 1.68,24.56 3.87,49.28 6.56,74.18l-143.31 0c-2.69,-15.48 -5.38,-34.15 -8.07,-56.01 -2.7,-21.87 -4.71,-44.24 -6.06,-67.12l-19.18 0c-9.42,25.57 -23.04,48.95 -40.87,70.14 -17.83,21.2 -39.36,37.69 -64.59,49.45 -25.23,11.78 -53.65,17.66 -85.28,17.66zm73.68 -115.04c12.11,0 24.39,-2.19 36.83,-6.56 12.45,-4.37 24.39,-10.43 35.82,-18.17 11.44,-7.74 21.87,-17.33 31.29,-28.76 9.42,-11.44 16.48,-23.88 21.19,-37.34l-2.02 -79.73 22.2 5.05c-12.79,8.07 -26.92,14.46 -42.39,19.17 -15.47,4.71 -31.11,8.41 -46.93,11.1 -15.81,2.69 -31.29,5.55 -46.43,8.57 -15.14,3.03 -28.59,6.9 -40.37,11.61 -11.77,4.7 -21.02,11.1 -27.75,19.17 -6.74,8.07 -10.09,19.17 -10.09,33.31 0,18.83 6.39,33.98 19.18,45.41 12.78,11.44 29.26,17.16 49.45,17.16zm-466.41 100.92l0 -530.84 -193.77 0 0 -135.24 193.77 0 163.5 0 195.78 0 0 135.24 -195.78 0 0 530.84 -163.5 0zm766.85 170.56l0 -430.93 0 -272.49 133.21 0 2.02 151.39 18.17 2.01c6.05,-37.67 16.81,-68.96 32.3,-93.85 15.47,-24.89 35.49,-43.39 60.04,-55.51 24.56,-12.11 52.65,-18.16 84.27,-18.16 47.1,0 87.63,11.44 121.61,34.31 33.98,22.88 60.06,55.51 78.22,97.9 18.17,42.38 27.25,93.18 27.25,152.39 0,52.48 -7.91,99.58 -23.72,141.29 -15.81,41.71 -39.69,74.68 -71.65,98.9 -31.96,24.22 -72.5,36.33 -121.61,36.33 -32.97,0 -60.89,-5.88 -83.77,-17.66 -22.87,-11.77 -42.22,-29.1 -58.02,-51.97 -15.81,-22.87 -29.1,-51.47 -39.87,-85.79l-19.18 0c4.04,18.16 7.74,36.67 11.1,55.5 3.37,18.85 6.23,37.01 8.58,54.5 2.35,17.5 3.53,34.31 3.53,50.46l0 151.39 -162.48 0zm280.56 -284.59c22.2,0 41.21,-6.06 57.02,-18.17 15.81,-12.11 28.09,-29.27 36.84,-51.46 8.75,-22.2 13.12,-48.11 13.12,-77.72 0,-31.62 -4.54,-58.69 -13.62,-81.24 -9.09,-22.54 -22.04,-40.03 -38.86,-52.48 -16.81,-12.44 -36.33,-18.67 -58.53,-18.67 -20.85,0 -38.52,4.54 -52.98,13.62 -14.46,9.09 -26.24,20.86 -35.32,35.33 -9.09,14.46 -15.65,29.77 -19.68,45.92 -4.04,16.14 -6.06,31.28 -6.06,45.41l0 22.2c0,12.78 1.69,25.56 5.05,38.35 3.37,12.78 8.41,25.06 15.14,36.84 6.73,11.77 14.8,22.37 24.22,31.78 9.42,9.42 20.35,16.82 32.8,22.2 12.45,5.38 26.07,8.08 40.87,8.08zm565.71 128.16c-44.41,0 -84.1,-5.88 -119.09,-17.66 -34.99,-11.77 -64.76,-29.1 -89.31,-51.97 -24.56,-22.87 -43.23,-51.13 -56.02,-84.78 -12.78,-33.64 -19.17,-72.33 -19.17,-116.06 0,-42.39 6.22,-81.42 18.67,-117.07 12.45,-35.66 30.28,-66.44 53.49,-92.34 23.22,-25.9 51.81,-45.92 85.79,-60.05 33.97,-14.12 72.15,-21.19 114.54,-21.19 43.06,0 80.91,6.89 113.54,20.69 32.63,13.8 59.55,34.15 80.74,61.06 21.19,26.92 36.83,59.71 46.92,98.4 10.09,38.69 13.46,82.93 10.09,132.71l-416.8 3.03 0 -84.78 323.96 -3.02 -57.52 39.35c4.71,-33.64 2.69,-61.06 -6.05,-82.25 -8.75,-21.2 -21.54,-36.67 -38.35,-46.43 -16.82,-9.76 -34.99,-14.63 -54.5,-14.63 -23.55,0 -44.24,6.39 -62.07,19.17 -17.82,12.79 -31.79,31.29 -41.88,55.51 -10.1,24.21 -15.14,53.82 -15.14,88.81 0,55.17 11.94,95.2 35.83,120.09 23.88,24.89 54.33,37.34 91.33,37.34 18.17,0 33.3,-2.52 45.41,-7.57 12.11,-5.04 22.04,-11.44 29.78,-19.18 7.73,-7.73 13.79,-16.31 18.16,-25.73 4.37,-9.42 7.9,-18.5 10.59,-27.25l141.29 30.28c-5.38,24.89 -13.96,47.43 -25.73,67.62 -11.77,20.19 -27.58,37.67 -47.43,52.47 -19.85,14.81 -43.73,26.07 -71.65,33.81 -27.93,7.73 -61.06,11.6 -99.41,11.6z"/>
   <path class="fil0" d="M2495.15 798.88l0 -395.17 477.36 0.57 0 118.08 -313.86 0 0 145.32 365.33 0 0 131.19 -528.83 0zm2136.6 0l0 -247.25 0 -294.44c22.67,1.07 46.2,3.84 66.05,8.86 42.22,10.69 62.87,24.91 68.11,26.89l2.08 153.74 20.19 0c4.7,-47.1 13.62,-84.61 26.74,-112.53 13.12,-27.93 31.96,-48.28 56.52,-61.06 24.56,-12.78 55.01,-19.18 91.33,-19.18 5.39,0 11.44,0.17 18.17,0.51 6.72,0.33 14.46,1.18 23.21,2.52l-6.06 173.59c-10.76,-5.38 -22.37,-8.92 -34.82,-10.6 -12.45,-1.69 -23.38,-2.52 -32.8,-2.52 -26.24,0 -48.94,5.04 -68.12,15.13 -19.17,10.09 -34.31,25.57 -45.41,46.42 -11.1,20.86 -18.33,47.09 -21.7,78.72l0 241.2 -163.49 0zm637.94 14.13c-44.41,0 -84.11,-5.88 -119.09,-17.66 -34.99,-11.77 -64.76,-29.1 -89.31,-51.97 -24.56,-22.87 -43.23,-51.13 -56.02,-84.77 -12.78,-33.64 -19.18,-72.33 -19.18,-116.06 0,-42.39 6.23,-81.42 18.67,-117.07 12.45,-35.66 30.28,-66.44 53.49,-92.34 23.22,-25.9 51.81,-45.92 85.79,-60.05 33.97,-14.12 72.15,-21.19 114.54,-21.19 43.06,0 80.91,6.89 113.54,20.69 32.63,13.8 59.55,34.15 80.74,61.06 21.19,26.92 36.84,59.71 46.93,98.4 10.09,38.69 13.46,82.93 10.09,132.71l-416.8 3.03 0 -84.78 323.96 -3.02 -57.53 39.35c4.71,-33.64 2.7,-61.06 -6.05,-82.25 -8.74,-21.2 -21.53,-36.67 -38.35,-46.43 -16.82,-9.76 -34.99,-14.63 -54.5,-14.63 -23.55,0 -44.24,6.39 -62.07,19.17 -17.83,12.79 -31.79,31.29 -41.88,55.51 -10.1,24.21 -15.15,53.82 -15.15,88.81 0,55.17 11.94,95.2 35.83,120.09 23.88,24.89 54.33,37.34 91.33,37.34 18.16,0 33.3,-2.52 45.41,-7.57 12.11,-5.04 22.04,-11.44 29.78,-19.18 7.74,-7.73 13.79,-16.31 18.17,-25.73 4.37,-9.42 7.9,-18.5 10.59,-27.25l141.3 30.28c-5.38,24.89 -13.96,47.43 -25.74,67.62 -11.76,20.19 -27.58,37.67 -47.43,52.48 -19.85,14.81 -43.74,26.07 -71.65,33.81 -27.93,7.73 -61.06,11.6 -99.41,11.6zm-646.71 -556.16l0 542.03 -162.48 0 0 -506.63c4.25,-1.34 10.58,-5.72 14.04,-7.48 39.95,-20.35 93.3,-28.35 137.96,-28.09 3.45,0.02 6.95,0.08 10.49,0.18zm-725.96 712.59l0 -430.93 0 -272.49 133.21 0 2.02 151.39 18.17 2.01c6.05,-37.67 16.81,-68.96 32.3,-93.85 15.48,-24.89 35.49,-43.39 60.05,-55.51 24.56,-12.11 52.65,-18.16 84.27,-18.16 47.09,0 87.63,11.44 121.61,34.31 33.98,22.88 60.05,55.51 78.21,97.9 18.17,42.38 27.25,93.18 27.25,152.39 0,52.48 -7.91,99.58 -23.72,141.29 -15.81,41.71 -39.69,74.68 -71.65,98.91 -31.96,24.22 -72.5,36.33 -121.61,36.33 -32.97,0 -60.89,-5.88 -83.77,-17.66 -22.87,-11.77 -42.22,-29.1 -58.02,-51.97 -15.81,-22.87 -29.1,-51.47 -39.87,-85.78l-19.18 0c4.04,18.16 7.74,36.67 11.11,55.5 3.37,18.85 6.22,37.01 8.58,54.5 2.35,17.49 3.53,34.31 3.53,50.46l0 151.38 -162.48 0zm280.56 -284.59c22.2,0 41.2,-6.06 57.02,-18.17 15.8,-12.11 28.09,-29.27 36.83,-51.47 8.75,-22.2 13.12,-48.1 13.12,-77.71 0,-31.62 -4.54,-58.69 -13.62,-81.24 -9.09,-22.54 -22.04,-40.03 -38.86,-52.48 -16.81,-12.44 -36.33,-18.67 -58.53,-18.67 -20.85,0 -38.52,4.54 -52.98,13.62 -14.46,9.09 -26.24,20.86 -35.32,35.33 -9.09,14.46 -15.65,29.77 -19.68,45.92 -4.04,16.14 -6.06,31.28 -6.06,45.41l0 22.2c0,12.78 1.68,25.57 5.05,38.35 3.36,12.78 8.41,25.06 15.14,36.84 6.73,11.77 14.8,22.37 24.22,31.78 9.42,9.42 20.35,16.82 32.79,22.2 12.45,5.38 26.07,8.07 40.88,8.07zm-1144.02 114.04l0 -344.14 0 -188.72 128.17 0 2.02 156.43 20.19 0c9.42,-38.35 21.86,-70.14 37.34,-95.37 15.47,-25.23 34.31,-44.07 56.52,-56.52 22.2,-12.44 48.11,-18.67 77.71,-18.67 30.95,0 56.68,6.56 77.2,19.68 20.52,13.12 36.84,32.29 48.95,57.52 12.11,25.24 20.18,56.35 24.22,93.36l17.16 0c10.77,-39.7 24.9,-72.16 42.39,-97.39 17.49,-25.23 38.35,-43.73 62.57,-55.51 24.22,-11.77 50.46,-17.66 78.72,-17.66 30.28,0 56.69,5.89 79.22,17.66 22.54,11.78 41.37,29.26 56.51,52.48 15.15,23.21 26.41,52.14 33.81,86.79 7.4,34.65 11.11,74.85 11.11,120.6l0 269.46 -163.5 0 0 -249.27c0,-35.66 -2.85,-65.26 -8.58,-88.81 -5.72,-23.55 -14.63,-41.21 -26.74,-52.98 -12.11,-11.77 -27.58,-17.66 -46.42,-17.66 -21.53,0 -39.87,7.07 -55,21.19 -15.15,14.13 -26.75,33.81 -34.82,59.04 -8.07,25.23 -12.11,53.66 -12.11,85.28l0 243.21 -159.46 0 0 -246.24c0,-37.01 -3.19,-67.28 -9.59,-90.83 -6.39,-23.54 -15.81,-41.37 -28.26,-53.49 -12.44,-12.11 -28.09,-18.16 -46.93,-18.16 -21.53,0 -39.7,7.07 -54.5,21.19 -14.8,14.13 -26.07,33.81 -33.81,59.04 -7.74,25.23 -11.6,53.66 -11.6,85.28l0 243.21 -162.48 0zm-538.41 -535.85l0 -130.23 525.8 0 0 130.19 -525.8 0.04z"/>
   <path class="fil1" d="M4609.58 41.72c0.12,19.35 -12.04,41.59 -20.09,54.56 -5.29,8.54 -9.51,14.46 -15.05,22.07 -3.68,5.06 -14.24,16.21 -16.17,20.5 4.48,5.13 18.65,13.76 25.14,17.14 -5.51,-0.59 -20.16,-6.72 -25.57,-8.9 -20.28,-8.15 -46.93,-33.07 -57.69,-50.53 1.85,-6.17 10.4,-10.61 4.48,-23.15 -7.79,-16.52 -34.77,-12.83 -34.99,7.68 -0.13,12.13 6.89,13.83 13.42,18.57 -3.22,29.29 -15.65,41.65 -18.17,51.78 6.28,4.11 13.65,11.16 23.55,17.1 -5.58,-1 -18.94,-6.28 -24.04,-8.43 -18.15,-7.66 -45.77,-30.64 -56,-46.01 2.21,-3.63 4.35,-3.2 6.29,-8.07 4.5,-11.3 -4.85,-25.76 -19.79,-20.8 -12.93,4.29 -17.62,29.7 9.25,29.96 3.73,5.32 35.73,95.57 40.94,109.56 4.05,10.87 8.59,26.5 13.72,36.78 4.06,-0.4 11.76,-5.84 15.71,-7.85 39.95,-20.35 93.3,-28.36 137.96,-28.09 28.07,0.17 59.74,2.91 85.31,9.38 43.75,11.07 64.34,25.95 68.62,27.06 2.45,-9.68 51.62,-142.45 54.41,-146.93 25.49,0.72 22.44,-24.26 10.08,-29.59 -8.83,-3.8 -17.44,1.55 -20.25,7.04 -5.7,11.11 2.44,16.41 5.9,21.56 -8.09,12.03 -21.38,23.54 -33.44,32.43 -10.69,7.87 -29.3,18.51 -45.11,21.43 0.19,-0.2 0.52,-0.76 0.62,-0.56 0.1,0.19 0.48,-0.43 0.62,-0.54 0.14,-0.11 0.45,-0.38 0.62,-0.51l9.26 -6.38c4.34,-3.02 7.11,-5.98 10.98,-8.57 -1.25,-5.42 -18.34,-31.85 -17.84,-51.73 3.09,-2.35 12.66,-5.51 12.97,-17.52 0.52,-20.33 -25.34,-26.39 -34.5,-9.33 -5.52,10.28 -0.44,17.25 4.25,22.72 -3.43,9.8 -24.78,29.38 -33.59,36.59 -10.88,8.91 -32.72,20.78 -48.04,23.11 6.22,-5.13 17.99,-9.73 23.32,-16.39 -0.13,-0.26 -0.37,-0.91 -0.45,-0.74l-7.53 -9.3c-16.58,-20.14 -44.33,-60.14 -43.27,-85.87 3.51,-2.85 17.58,-4.33 17.33,-21.68 -0.17,-11.64 -8.73,-19.95 -20.25,-19.93 -25.51,0.05 -27.98,36.43 -2.91,40.38z"/>
  </g>
 </g>
</svg>
