<?xml version="1.0" encoding="UTF-8"?>
<svg xmlns="http://www.w3.org/2000/svg" xml:space="preserve" width="4.796in" height="0.728in" version="1.1" style="shape-rendering:geometricPrecision; text-rendering:geometricPrecision; image-rendering:optimizeQuality; fill-rule:evenodd; clip-rule:evenodd"
viewBox="0 0 4796 728"
 xmlns:xlink="http://www.w3.org/1999/xlink"
 xmlns:xodm="http://www.corel.com/coreldraw/odm/2003">
 <defs>
  <style type="text/css">
   <![CDATA[
    .fil0 {fill:black;fill-rule:nonzero}
   ]]>
  </style>
 </defs>
 <g id="Layer_x0020_1">
  <metadata id="CorelCorpID_0Corel-Layer"/>
  <path class="fil0" d="M2168.8 582.13l0 -343.65 415.12 0.49 0 102.69 -272.94 0 0 126.38 317.7 0 0 114.09 -459.88 0zm1709.11 -579.24l141.3 0 0 115.85 0 25.47 0 437.92 -141.3 0 0 -463.39 115.83 0 -115.83 -115.85zm-3369.88 591.53c-25.74,0 -48.56,-5.11 -68.46,-15.36 -19.89,-10.24 -35.4,-25.15 -46.52,-44.76 -11.11,-19.6 -16.67,-43.44 -16.67,-71.53 0,-26.33 5.11,-48.13 15.35,-65.38 10.24,-17.26 25.16,-31.01 44.76,-41.25 19.6,-10.24 43.15,-18.72 70.65,-25.45 27.5,-6.73 58.8,-12.73 93.91,-17.99 16.97,-2.93 31.15,-5.71 42.56,-8.34 11.41,-2.63 20.04,-6.87 25.89,-12.72 5.85,-5.85 8.78,-14.33 8.78,-25.45 0,-14.63 -5.26,-27.21 -15.8,-37.74 -10.53,-10.53 -27.5,-15.8 -50.91,-15.8 -16.39,0 -31.16,2.93 -44.32,8.78 -13.16,5.85 -24.43,14.33 -33.79,25.45 -9.36,11.11 -16.38,24.57 -21.06,40.37l-124.63 -36.86c7.61,-24.57 18.28,-45.93 32.04,-64.07 13.75,-18.14 30.28,-33.21 49.58,-45.2 19.31,-12 41.4,-20.77 66.27,-26.33 24.87,-5.56 51.34,-8.34 79.43,-8.34 46.81,0 84.98,7.46 114.53,22.38 29.55,14.92 51.49,38.04 65.82,69.33 14.34,31.3 21.5,71.53 21.5,120.67l0 71.09c0,21.06 0.44,42.27 1.32,63.63 0.88,21.35 2.04,42.71 3.51,64.07 1.46,21.35 3.36,42.85 5.7,64.51l-124.62 0c-2.34,-13.46 -4.69,-29.7 -7.02,-48.71 -2.34,-19.02 -4.09,-38.47 -5.27,-58.37l-16.67 0c-8.19,22.24 -20.04,42.57 -35.54,61 -15.5,18.43 -34.22,32.77 -56.17,43 -21.94,10.24 -46.66,15.36 -74.16,15.36zm64.07 -100.05c10.53,0 21.2,-1.9 32.04,-5.71 10.82,-3.8 21.2,-9.07 31.15,-15.8 9.94,-6.73 19.02,-15.07 27.21,-25.01 8.19,-9.94 14.33,-20.77 18.43,-32.47l-1.76 -69.33 19.31 4.39c-11.12,7.02 -23.41,12.58 -36.87,16.68 -13.46,4.09 -27.06,7.31 -40.81,9.65 -13.74,2.34 -27.2,4.83 -40.37,7.46 -13.17,2.63 -24.87,6 -35.11,10.09 -10.24,4.1 -18.28,9.66 -24.13,16.68 -5.85,7.02 -8.78,16.67 -8.78,28.96 0,16.38 5.56,29.55 16.68,39.49 11.12,9.95 25.45,14.92 43,14.92zm-405.6 87.76l0 -461.64 -168.5 0 0 -117.61 168.5 0 142.18 0 170.26 0 0 117.61 -170.26 0 0 461.64 -142.18 0zm666.87 148.32l0 -374.75 0 -236.96 115.85 0 1.75 131.65 15.8 1.76c5.26,-32.76 14.62,-59.97 28.08,-81.62 13.46,-21.65 30.87,-37.74 52.22,-48.28 21.35,-10.53 45.78,-15.8 73.28,-15.8 40.96,0 76.21,9.94 105.76,29.84 29.55,19.89 52.22,48.27 68.02,85.13 15.8,36.86 23.7,81.03 23.7,132.52 0,45.64 -6.88,86.6 -20.63,122.87 -13.75,36.28 -34.52,64.94 -62.31,86.01 -27.8,21.06 -63.05,31.59 -105.76,31.59 -28.67,0 -52.95,-5.11 -72.85,-15.36 -19.89,-10.24 -36.71,-25.3 -50.46,-45.2 -13.75,-19.89 -25.31,-44.76 -34.67,-74.6l-16.68 0c3.51,15.8 6.73,31.89 9.66,48.27 2.92,16.39 5.41,32.18 7.46,47.39 2.05,15.22 3.07,29.85 3.07,43.89l0 131.64 -141.3 0zm243.98 -247.49c19.31,0 35.83,-5.27 49.59,-15.8 13.75,-10.53 24.43,-25.45 32.04,-44.76 7.61,-19.31 11.41,-41.83 11.41,-67.58 0,-27.5 -3.95,-51.05 -11.85,-70.65 -7.9,-19.6 -19.17,-34.81 -33.79,-45.64 -14.63,-10.82 -31.59,-16.23 -50.91,-16.23 -18.13,0 -33.5,3.95 -46.07,11.85 -12.58,7.9 -22.82,18.14 -30.72,30.72 -7.9,12.57 -13.61,25.89 -17.11,39.93 -3.51,14.04 -5.26,27.2 -5.26,39.49l0 19.31c0,11.11 1.46,22.23 4.39,33.35 2.93,11.12 7.32,21.79 13.17,32.03 5.85,10.24 12.87,19.46 21.07,27.65 8.19,8.19 17.7,14.63 28.52,19.31 10.83,4.68 22.68,7.02 35.55,7.02zm491.95 111.46c-38.62,0 -73.14,-5.11 -103.56,-15.36 -30.43,-10.24 -56.31,-25.3 -77.67,-45.2 -21.35,-19.89 -37.59,-44.46 -48.71,-73.72 -11.11,-29.25 -16.67,-62.9 -16.67,-100.92 0,-36.87 5.41,-70.8 16.24,-101.81 10.83,-31.01 26.33,-57.78 46.52,-80.3 20.19,-22.53 45.05,-39.93 74.6,-52.22 29.54,-12.28 62.75,-18.43 99.61,-18.43 37.45,0 70.36,6 98.74,17.99 28.37,12 51.78,29.69 70.21,53.09 18.43,23.41 32.04,51.93 40.81,85.57 8.78,33.65 11.7,72.11 8.78,115.41l-362.46 2.63 0 -73.72 281.72 -2.63 -50.03 34.23c4.1,-29.25 2.34,-53.1 -5.26,-71.53 -7.61,-18.43 -18.72,-31.89 -33.35,-40.37 -14.63,-8.48 -30.42,-12.72 -47.39,-12.72 -20.48,0 -38.47,5.55 -53.98,16.67 -15.5,11.12 -27.65,27.21 -36.42,48.28 -8.78,21.06 -13.17,46.81 -13.17,77.23 0,47.98 10.38,82.79 31.16,104.44 20.77,21.65 47.24,32.47 79.43,32.47 15.8,0 28.96,-2.2 39.49,-6.58 10.53,-4.39 19.16,-9.94 25.89,-16.68 6.72,-6.72 11.99,-14.19 15.8,-22.38 3.8,-8.19 6.87,-16.09 9.21,-23.7l122.87 26.33c-4.68,21.65 -12.14,41.25 -22.38,58.8 -10.24,17.56 -23.99,32.76 -41.25,45.63 -17.26,12.88 -38.03,22.68 -62.31,29.41 -24.29,6.73 -53.1,10.09 -86.45,10.09zm1067.7 -12.28l0 -299.28 0 -164.11 111.46 0 1.76 136.04 17.55 0c8.19,-33.35 19.02,-61 32.47,-82.94 13.46,-21.94 29.84,-38.32 49.15,-49.15 19.31,-10.82 41.83,-16.24 67.57,-16.24 26.92,0 49.3,5.7 67.14,17.11 17.85,11.41 32.04,28.08 42.56,50.02 10.53,21.94 17.56,49 21.06,81.19l14.92 0c9.37,-34.52 21.65,-62.76 36.87,-84.7 15.21,-21.94 33.35,-38.03 54.41,-48.27 21.06,-10.24 43.88,-15.36 68.45,-15.36 26.33,0 49.3,5.12 68.9,15.36 19.6,10.24 35.98,25.45 49.15,45.64 13.17,20.19 22.96,45.35 29.4,75.47 6.44,30.13 9.66,65.09 9.66,104.88l0 234.33 -142.18 0 0 -216.78c0,-31.01 -2.48,-56.75 -7.46,-77.23 -4.97,-20.48 -12.72,-35.83 -23.26,-46.07 -10.53,-10.24 -23.99,-15.36 -40.37,-15.36 -18.72,0 -34.67,6.15 -47.83,18.43 -13.17,12.29 -23.26,29.4 -30.28,51.34 -7.02,21.94 -10.54,46.66 -10.54,74.16l0 211.51 -138.67 0 0 -214.15c0,-32.18 -2.78,-58.51 -8.33,-78.99 -5.56,-20.48 -13.75,-35.98 -24.57,-46.52 -10.82,-10.53 -24.43,-15.8 -40.81,-15.8 -18.73,0 -34.52,6.15 -47.39,18.43 -12.87,12.29 -22.67,29.4 -29.4,51.34 -6.73,21.94 -10.09,46.66 -10.09,74.16l0 211.51 -141.3 0zm750.89 148.32l0 -374.75 0 -236.96 115.85 0 1.76 131.65 15.8 1.76c5.26,-32.76 14.62,-59.97 28.09,-81.62 13.46,-21.65 30.86,-37.74 52.22,-48.28 21.35,-10.53 45.78,-15.8 73.28,-15.8 40.96,0 76.21,9.94 105.76,29.84 29.55,19.89 52.22,48.27 68.02,85.13 15.8,36.86 23.7,81.03 23.7,132.52 0,45.64 -6.88,86.6 -20.63,122.87 -13.75,36.28 -34.52,64.94 -62.31,86.01 -27.8,21.06 -63.04,31.59 -105.76,31.59 -28.67,0 -52.95,-5.11 -72.85,-15.36 -19.89,-10.24 -36.71,-25.3 -50.46,-45.2 -13.75,-19.89 -25.31,-44.76 -34.67,-74.6l-16.68 0c3.51,15.8 6.73,31.89 9.66,48.27 2.93,16.39 5.41,32.18 7.46,47.39 2.05,15.22 3.07,29.85 3.07,43.89l0 131.64 -141.3 0zm243.98 -247.49c19.31,0 35.83,-5.27 49.59,-15.8 13.74,-10.53 24.43,-25.45 32.03,-44.76 7.61,-19.31 11.41,-41.83 11.41,-67.58 0,-27.5 -3.95,-51.05 -11.85,-70.65 -7.9,-19.6 -19.17,-34.81 -33.79,-45.64 -14.63,-10.82 -31.59,-16.23 -50.91,-16.23 -18.13,0 -33.5,3.95 -46.07,11.85 -12.58,7.9 -22.82,18.14 -30.72,30.72 -7.9,12.57 -13.6,25.89 -17.11,39.93 -3.51,14.04 -5.26,27.2 -5.26,39.49l0 19.31c0,11.11 1.46,22.23 4.39,33.35 2.93,11.12 7.32,21.79 13.17,32.03 5.85,10.24 12.87,19.46 21.06,27.65 8.19,8.19 17.7,14.63 28.52,19.31 10.83,4.68 22.67,7.02 35.54,7.02zm394.96 99.17l0 -215.02 0 -248.37 115.85 0 2.63 157.1 17.56 0c4.09,-40.96 11.85,-73.58 23.26,-97.86 11.41,-24.28 27.79,-41.98 49.14,-53.1 21.36,-11.12 47.84,-16.68 79.43,-16.68 4.68,0 9.94,0.15 15.8,0.44 5.85,0.3 12.58,1.02 20.19,2.2l-5.26 150.95c-9.36,-4.68 -19.46,-7.76 -30.28,-9.22 -10.83,-1.46 -20.33,-2.19 -28.52,-2.19 -22.82,0 -42.57,4.39 -59.24,13.16 -16.67,8.78 -29.84,22.24 -39.49,40.37 -9.65,18.14 -15.94,40.96 -18.87,68.46l0 209.76 -142.17 0zm554.76 12.28c-38.62,0 -73.14,-5.11 -103.56,-15.36 -30.43,-10.24 -56.31,-25.3 -77.67,-45.2 -21.35,-19.89 -37.59,-44.46 -48.71,-73.72 -11.11,-29.25 -16.67,-62.9 -16.67,-100.92 0,-36.87 5.41,-70.8 16.23,-101.81 10.83,-31.01 26.33,-57.78 46.52,-80.3 20.19,-22.53 45.05,-39.93 74.6,-52.22 29.54,-12.28 62.75,-18.43 99.61,-18.43 37.44,0 70.35,6 98.73,17.99 28.37,12 51.78,29.69 70.21,53.09 18.43,23.41 32.04,51.93 40.81,85.57 8.77,33.65 11.7,72.11 8.77,115.41l-362.46 2.63 0 -73.72 281.72 -2.63 -50.03 34.23c4.1,-29.25 2.35,-53.1 -5.26,-71.53 -7.61,-18.43 -18.72,-31.89 -33.35,-40.37 -14.63,-8.48 -30.43,-12.72 -47.39,-12.72 -20.48,0 -38.47,5.55 -53.98,16.67 -15.5,11.12 -27.65,27.21 -36.42,48.28 -8.78,21.06 -13.17,46.81 -13.17,77.23 0,47.98 10.39,82.79 31.16,104.44 20.77,21.65 47.24,32.47 79.43,32.47 15.8,0 28.96,-2.2 39.49,-6.58 10.53,-4.39 19.16,-9.94 25.89,-16.68 6.72,-6.72 12,-14.19 15.8,-22.38 3.8,-8.19 6.87,-16.09 9.21,-23.7l122.87 26.33c-4.68,21.65 -12.14,41.25 -22.38,58.8 -10.24,17.56 -23.99,32.76 -41.25,45.63 -17.26,12.88 -38.03,22.68 -62.31,29.41 -24.28,6.73 -53.1,10.09 -86.45,10.09zm-2797.1 -12.28l0 -215.02 0 -248.37 115.85 0 2.63 157.1 17.56 0c4.09,-40.96 11.85,-73.58 23.26,-97.86 11.41,-24.28 27.79,-41.98 49.15,-53.1 21.36,-11.12 47.83,-16.68 79.43,-16.68 4.68,0 9.94,0.15 15.8,0.44 5.85,0.3 12.58,1.02 20.19,2.2l-5.26 150.95c-9.36,-4.68 -19.46,-7.76 -30.28,-9.22 -10.83,-1.46 -20.33,-2.19 -28.52,-2.19 -22.82,0 -42.57,4.39 -59.24,13.16 -16.67,8.78 -29.84,22.24 -39.49,40.37 -9.65,18.14 -15.94,40.96 -18.87,68.46l0 209.76 -142.17 0zm384.29 -466l0 -113.25 457.25 0 0 113.21 -457.25 0.04z"/>
 </g>
</svg>
